# xmcd CD database file
#
# Track frame offsets:
#	150
#	12037
#	33189
#	51594
#	71977
#	90292
#	116565
#	137070
#	154453
#	187978
#	208193
#
# Disc length: 2990 seconds
#
# Revision: 6
# Processed by: cddbd v1.5.2PL0 Copyright (c) Steve Scherf et al.
# Submitted via: CDex 1.70beta2
#
DISCID=980bac0b
DTITLE=Various Artist - Xanadu Music Chronicle
DYEAR=2005
DGENRE=Soundtrack
TTITLE0=Falcom Sound Team jdk - LA VALSE POUR XANADU
TTITLE1=寺嶋民哉 - プロローグ
TTITLE2=jdk Band - 風の伝説
TTITLE3=寺嶋民哉 - 静寂の尖塔
TTITLE4=jdk Band - 暗黒の翼
TTITLE5=川菜 翠 - 思い出より遥かに
TTITLE6=アンセム - ザナドゥ
TTITLE7=デビッド・マシューズ - LA VALSE POUR XANADU
TTITLE8=藤澤道夫 - 波と少年～LA VALSE POUR XANADU
TTITLE9=jdk Band - XANADU
TTITLE10=MagnetsU - White Lie In Black
EXTD=YEAR: 2005
EXTT0=
EXTT1=
EXTT2=
EXTT3=
EXTT4=
EXTT5=
EXTT6=
EXTT7=
EXTT8=
EXTT9=
EXTT10=
PLAYORDER=
